<?xml version="1.0" encoding="utf-8"?>
<!-- Generator: Adobe Illustrator 16.0.0, SVG Export Plug-In . SVG Version: 6.00 Build 0)  -->
<!DOCTYPE svg PUBLIC "-//W3C//DTD SVG 1.1//EN" "http://www.w3.org/Graphics/SVG/1.1/DTD/svg11.dtd">
<svg version="1.1" id="Layer_1" xmlns="http://www.w3.org/2000/svg" xmlns:xlink="http://www.w3.org/1999/xlink" x="0px" y="0px"
	 width="512px" height="512px" viewBox="0 0 512 512" enable-background="new 0 0 512 512" xml:space="preserve">
<path fill="#09518B" d="M71.547,117.694c-7.823,0-14.82,0.044-21.818-0.011c-13.938-0.109-24.065-9.794-24.093-22.971
	C25.609,81.55,35.63,71.569,49.569,71.514c36.004-0.144,72.008-0.05,108.014-0.051h6.335c0-11.423-0.001-22.183,0-32.943
	c0-3.781-0.026-7.562,0.009-11.343c0.143-15.434,9.471-24.772,25.034-24.808c31.506-0.069,63.008-0.018,94.512-0.022
	c13.143-0.003,26.283-0.094,39.424-0.02c15.844,0.091,25.137,9.4,25.205,25.209c0.064,14.369,0.016,28.737,0.016,43.641
	c2.596,0.115,4.682,0.289,6.766,0.29c35.465,0.025,70.93-0.01,106.395,0.056c14.875,0.027,25.086,9.531,25.086,23.106
	c0,12.599-9.666,22.659-22.379,23.011c-7.535,0.209-15.082,0.037-23.494,0.037v7.034c0,119.373-0.012,238.749,0.025,358.122
	c0.004,6.653-0.949,12.908-5.342,18.22c-5.369,6.492-12.467,8.646-20.625,8.636c-40.865-0.048-81.729,0.007-122.594,0.012
	c-63.908,0.007-127.816,0.001-191.726,0.001c-20.171,0-28.682-8.433-28.682-28.433c-0.001-118.651,0-237.306,0-355.958V117.694z
	 M118.117,463.039h275.881v-345.09H118.117V463.039z M210.116,71.127h91.729V48.972h-91.729V71.127z"/>
<path fill="#09518B" d="M325.16,290.577c-0.002,34.397,0.119,68.794-0.053,103.19c-0.086,17.406-17.1,28.612-32.428,21.525
	c-9.756-4.512-13.719-12.689-13.709-23.14c0.02-25.394,0.004-50.788,0.004-76.178c0-41.782-0.041-83.563,0.068-125.344
	c0.012-3.9,0.369-7.997,1.594-11.66c3.59-10.729,14.393-16.685,25.781-14.754c10.563,1.791,18.656,11.327,18.723,22.627
	c0.129,21.792,0.025,43.582,0.021,65.374C325.158,265.004,325.162,277.791,325.16,290.577"/>
<path fill="#09518B" d="M186.879,290.583c0-34.397-0.1-68.796,0.041-103.192c0.073-18.301,18.866-29.479,34.354-20.547
	c8.664,4.996,11.882,12.956,11.857,22.698c-0.083,32.235-0.025,64.472-0.033,96.707c-0.007,35.299,0.022,70.596-0.062,105.893
	c-0.035,14.915-9.539,25.095-23.123,25.099c-13.061,0.003-22.969-9.93-23.004-23.467
	C186.817,359.376,186.879,324.979,186.879,290.583"/>
<rect x="25.636" y="2.297" fill="none" width="460.727" height="507.406"/>
</svg>
