<?xml version="1.0" encoding="utf-8"?>
<!-- Generator: Adobe Illustrator 16.0.0, SVG Export Plug-In . SVG Version: 6.00 Build 0)  -->
<!DOCTYPE svg PUBLIC "-//W3C//DTD SVG 1.1//EN" "http://www.w3.org/Graphics/SVG/1.1/DTD/svg11.dtd">
<svg version="1.1" id="Layer_1" xmlns="http://www.w3.org/2000/svg" xmlns:xlink="http://www.w3.org/1999/xlink" x="0px" y="0px"
	 width="351.632px" height="351.548px" viewBox="0 0 351.632 351.548" enable-background="new 0 0 351.632 351.548"
	 xml:space="preserve">
<path fill="#08518B" d="M0.029,295.356c0.001-12.599,0.065-25.201-0.028-37.8c-0.042-5.685,1.831-10.325,5.901-14.39
	C85.087,164.08,164.217,84.935,243.37,5.814c7.747-7.744,16.877-7.768,24.685,0.019c25.883,25.816,51.737,51.661,77.556,77.541
	c8.112,8.132,8.007,17.036-0.191,25.233c-78.96,78.961-157.943,157.898-236.868,236.895c-4.159,4.163-8.89,6.063-14.716,6.046
	c-25.205-0.077-50.41-0.021-75.615-0.039C6.344,351.5,0.049,345.133,0.033,333.158C0.017,320.559,0.029,307.958,0.029,295.356
	 M32.06,319.51c18.288,0,36-0.056,53.711,0.059c2.594,0.019,4.365-0.778,6.173-2.591c56.78-56.86,113.612-113.669,170.43-170.491
	c0.845-0.845,1.627-1.752,2.184-2.354c-19.145-19.145-38.099-38.097-57.103-57.101c-0.07,0.051-0.399,0.233-0.655,0.488
	C149.089,145.21,91.375,202.899,33.74,260.666c-1.047,1.05-1.619,3.033-1.629,4.587c-0.107,16.967-0.057,33.935-0.051,50.902
	C32.061,317.126,32.06,318.097,32.06,319.51 M255.561,39.288c-8.187,8.185-16.468,16.464-24.387,24.383
	c18.887,18.898,37.899,37.921,56.72,56.752c8.038-8.031,16.322-16.307,24.423-24.399C293.485,77.199,274.529,58.249,255.561,39.288"
	/>
<rect fill="none" width="351.632" height="351.548"/>
</svg>
